<?xml version="1.0" encoding="utf-8"?>
<svg xmlns="http://www.w3.org/2000/svg" xmlns:xlink="http://www.w3.org/1999/xlink" style="margin: auto; background: black; display: block; shape-rendering: auto;" width="311px" height="311px" viewBox="0 0 100 100" preserveAspectRatio="xMidYMid">
<g transform="rotate(0 50 50)">
  <rect x="41" y="29.5" rx="5.4" ry="0.5" width="18" height="1" fill="#fcf5f7">
    <animate attributeName="opacity" values="1;0" keyTimes="0;1" dur="0.3194888178913738s" begin="-0.3115015974440895s" repeatCount="indefinite"></animate>
  </rect>
</g><g transform="rotate(9 50 50)">
  <rect x="41" y="29.5" rx="5.4" ry="0.5" width="18" height="1" fill="#fcf5f7">
    <animate attributeName="opacity" values="1;0" keyTimes="0;1" dur="0.3194888178913738s" begin="-0.3035143769968051s" repeatCount="indefinite"></animate>
  </rect>
</g><g transform="rotate(18 50 50)">
  <rect x="41" y="29.5" rx="5.4" ry="0.5" width="18" height="1" fill="#fcf5f7">
    <animate attributeName="opacity" values="1;0" keyTimes="0;1" dur="0.3194888178913738s" begin="-0.2955271565495208s" repeatCount="indefinite"></animate>
  </rect>
</g><g transform="rotate(27 50 50)">
  <rect x="41" y="29.5" rx="5.4" ry="0.5" width="18" height="1" fill="#fcf5f7">
    <animate attributeName="opacity" values="1;0" keyTimes="0;1" dur="0.3194888178913738s" begin="-0.28753993610223644s" repeatCount="indefinite"></animate>
  </rect>
</g><g transform="rotate(36 50 50)">
  <rect x="41" y="29.5" rx="5.4" ry="0.5" width="18" height="1" fill="#fcf5f7">
    <animate attributeName="opacity" values="1;0" keyTimes="0;1" dur="0.3194888178913738s" begin="-0.2795527156549521s" repeatCount="indefinite"></animate>
  </rect>
</g><g transform="rotate(45 50 50)">
  <rect x="41" y="29.5" rx="5.4" ry="0.5" width="18" height="1" fill="#fcf5f7">
    <animate attributeName="opacity" values="1;0" keyTimes="0;1" dur="0.3194888178913738s" begin="-0.27156549520766776s" repeatCount="indefinite"></animate>
  </rect>
</g><g transform="rotate(54 50 50)">
  <rect x="41" y="29.5" rx="5.4" ry="0.5" width="18" height="1" fill="#fcf5f7">
    <animate attributeName="opacity" values="1;0" keyTimes="0;1" dur="0.3194888178913738s" begin="-0.2635782747603834s" repeatCount="indefinite"></animate>
  </rect>
</g><g transform="rotate(63 50 50)">
  <rect x="41" y="29.5" rx="5.4" ry="0.5" width="18" height="1" fill="#fcf5f7">
    <animate attributeName="opacity" values="1;0" keyTimes="0;1" dur="0.3194888178913738s" begin="-0.2555910543130991s" repeatCount="indefinite"></animate>
  </rect>
</g><g transform="rotate(72 50 50)">
  <rect x="41" y="29.5" rx="5.4" ry="0.5" width="18" height="1" fill="#fcf5f7">
    <animate attributeName="opacity" values="1;0" keyTimes="0;1" dur="0.3194888178913738s" begin="-0.24760383386581472s" repeatCount="indefinite"></animate>
  </rect>
</g><g transform="rotate(81 50 50)">
  <rect x="41" y="29.5" rx="5.4" ry="0.5" width="18" height="1" fill="#fcf5f7">
    <animate attributeName="opacity" values="1;0" keyTimes="0;1" dur="0.3194888178913738s" begin="-0.23961661341853038s" repeatCount="indefinite"></animate>
  </rect>
</g><g transform="rotate(90 50 50)">
  <rect x="41" y="29.5" rx="5.4" ry="0.5" width="18" height="1" fill="#fcf5f7">
    <animate attributeName="opacity" values="1;0" keyTimes="0;1" dur="0.3194888178913738s" begin="-0.23162939297124602s" repeatCount="indefinite"></animate>
  </rect>
</g><g transform="rotate(99 50 50)">
  <rect x="41" y="29.5" rx="5.4" ry="0.5" width="18" height="1" fill="#fcf5f7">
    <animate attributeName="opacity" values="1;0" keyTimes="0;1" dur="0.3194888178913738s" begin="-0.22364217252396168s" repeatCount="indefinite"></animate>
  </rect>
</g><g transform="rotate(108 50 50)">
  <rect x="41" y="29.5" rx="5.4" ry="0.5" width="18" height="1" fill="#fcf5f7">
    <animate attributeName="opacity" values="1;0" keyTimes="0;1" dur="0.3194888178913738s" begin="-0.21565495207667734s" repeatCount="indefinite"></animate>
  </rect>
</g><g transform="rotate(117 50 50)">
  <rect x="41" y="29.5" rx="5.4" ry="0.5" width="18" height="1" fill="#fcf5f7">
    <animate attributeName="opacity" values="1;0" keyTimes="0;1" dur="0.3194888178913738s" begin="-0.20766773162939298s" repeatCount="indefinite"></animate>
  </rect>
</g><g transform="rotate(126 50 50)">
  <rect x="41" y="29.5" rx="5.4" ry="0.5" width="18" height="1" fill="#fcf5f7">
    <animate attributeName="opacity" values="1;0" keyTimes="0;1" dur="0.3194888178913738s" begin="-0.19968051118210864s" repeatCount="indefinite"></animate>
  </rect>
</g><g transform="rotate(135 50 50)">
  <rect x="41" y="29.5" rx="5.4" ry="0.5" width="18" height="1" fill="#fcf5f7">
    <animate attributeName="opacity" values="1;0" keyTimes="0;1" dur="0.3194888178913738s" begin="-0.1916932907348243s" repeatCount="indefinite"></animate>
  </rect>
</g><g transform="rotate(144 50 50)">
  <rect x="41" y="29.5" rx="5.4" ry="0.5" width="18" height="1" fill="#fcf5f7">
    <animate attributeName="opacity" values="1;0" keyTimes="0;1" dur="0.3194888178913738s" begin="-0.18370607028753996s" repeatCount="indefinite"></animate>
  </rect>
</g><g transform="rotate(153 50 50)">
  <rect x="41" y="29.5" rx="5.4" ry="0.5" width="18" height="1" fill="#fcf5f7">
    <animate attributeName="opacity" values="1;0" keyTimes="0;1" dur="0.3194888178913738s" begin="-0.1757188498402556s" repeatCount="indefinite"></animate>
  </rect>
</g><g transform="rotate(162 50 50)">
  <rect x="41" y="29.5" rx="5.4" ry="0.5" width="18" height="1" fill="#fcf5f7">
    <animate attributeName="opacity" values="1;0" keyTimes="0;1" dur="0.3194888178913738s" begin="-0.16773162939297126s" repeatCount="indefinite"></animate>
  </rect>
</g><g transform="rotate(171 50 50)">
  <rect x="41" y="29.5" rx="5.4" ry="0.5" width="18" height="1" fill="#fcf5f7">
    <animate attributeName="opacity" values="1;0" keyTimes="0;1" dur="0.3194888178913738s" begin="-0.15974440894568692s" repeatCount="indefinite"></animate>
  </rect>
</g><g transform="rotate(180 50 50)">
  <rect x="41" y="29.5" rx="5.4" ry="0.5" width="18" height="1" fill="#fcf5f7">
    <animate attributeName="opacity" values="1;0" keyTimes="0;1" dur="0.3194888178913738s" begin="-0.15175718849840256s" repeatCount="indefinite"></animate>
  </rect>
</g><g transform="rotate(189 50 50)">
  <rect x="41" y="29.5" rx="5.4" ry="0.5" width="18" height="1" fill="#fcf5f7">
    <animate attributeName="opacity" values="1;0" keyTimes="0;1" dur="0.3194888178913738s" begin="-0.14376996805111822s" repeatCount="indefinite"></animate>
  </rect>
</g><g transform="rotate(198 50 50)">
  <rect x="41" y="29.5" rx="5.4" ry="0.5" width="18" height="1" fill="#fcf5f7">
    <animate attributeName="opacity" values="1;0" keyTimes="0;1" dur="0.3194888178913738s" begin="-0.13578274760383388s" repeatCount="indefinite"></animate>
  </rect>
</g><g transform="rotate(207 50 50)">
  <rect x="41" y="29.5" rx="5.4" ry="0.5" width="18" height="1" fill="#fcf5f7">
    <animate attributeName="opacity" values="1;0" keyTimes="0;1" dur="0.3194888178913738s" begin="-0.12779552715654954s" repeatCount="indefinite"></animate>
  </rect>
</g><g transform="rotate(216 50 50)">
  <rect x="41" y="29.5" rx="5.4" ry="0.5" width="18" height="1" fill="#fcf5f7">
    <animate attributeName="opacity" values="1;0" keyTimes="0;1" dur="0.3194888178913738s" begin="-0.11980830670926519s" repeatCount="indefinite"></animate>
  </rect>
</g><g transform="rotate(225 50 50)">
  <rect x="41" y="29.5" rx="5.4" ry="0.5" width="18" height="1" fill="#fcf5f7">
    <animate attributeName="opacity" values="1;0" keyTimes="0;1" dur="0.3194888178913738s" begin="-0.11182108626198084s" repeatCount="indefinite"></animate>
  </rect>
</g><g transform="rotate(234 50 50)">
  <rect x="41" y="29.5" rx="5.4" ry="0.5" width="18" height="1" fill="#fcf5f7">
    <animate attributeName="opacity" values="1;0" keyTimes="0;1" dur="0.3194888178913738s" begin="-0.10383386581469649s" repeatCount="indefinite"></animate>
  </rect>
</g><g transform="rotate(243 50 50)">
  <rect x="41" y="29.5" rx="5.4" ry="0.5" width="18" height="1" fill="#fcf5f7">
    <animate attributeName="opacity" values="1;0" keyTimes="0;1" dur="0.3194888178913738s" begin="-0.09584664536741215s" repeatCount="indefinite"></animate>
  </rect>
</g><g transform="rotate(252 50 50)">
  <rect x="41" y="29.5" rx="5.4" ry="0.5" width="18" height="1" fill="#fcf5f7">
    <animate attributeName="opacity" values="1;0" keyTimes="0;1" dur="0.3194888178913738s" begin="-0.0878594249201278s" repeatCount="indefinite"></animate>
  </rect>
</g><g transform="rotate(261 50 50)">
  <rect x="41" y="29.5" rx="5.4" ry="0.5" width="18" height="1" fill="#fcf5f7">
    <animate attributeName="opacity" values="1;0" keyTimes="0;1" dur="0.3194888178913738s" begin="-0.07987220447284346s" repeatCount="indefinite"></animate>
  </rect>
</g><g transform="rotate(270 50 50)">
  <rect x="41" y="29.5" rx="5.4" ry="0.5" width="18" height="1" fill="#fcf5f7">
    <animate attributeName="opacity" values="1;0" keyTimes="0;1" dur="0.3194888178913738s" begin="-0.07188498402555911s" repeatCount="indefinite"></animate>
  </rect>
</g><g transform="rotate(279 50 50)">
  <rect x="41" y="29.5" rx="5.4" ry="0.5" width="18" height="1" fill="#fcf5f7">
    <animate attributeName="opacity" values="1;0" keyTimes="0;1" dur="0.3194888178913738s" begin="-0.06389776357827477s" repeatCount="indefinite"></animate>
  </rect>
</g><g transform="rotate(288 50 50)">
  <rect x="41" y="29.5" rx="5.4" ry="0.5" width="18" height="1" fill="#fcf5f7">
    <animate attributeName="opacity" values="1;0" keyTimes="0;1" dur="0.3194888178913738s" begin="-0.05591054313099042s" repeatCount="indefinite"></animate>
  </rect>
</g><g transform="rotate(297 50 50)">
  <rect x="41" y="29.5" rx="5.4" ry="0.5" width="18" height="1" fill="#fcf5f7">
    <animate attributeName="opacity" values="1;0" keyTimes="0;1" dur="0.3194888178913738s" begin="-0.047923322683706075s" repeatCount="indefinite"></animate>
  </rect>
</g><g transform="rotate(306 50 50)">
  <rect x="41" y="29.5" rx="5.4" ry="0.5" width="18" height="1" fill="#fcf5f7">
    <animate attributeName="opacity" values="1;0" keyTimes="0;1" dur="0.3194888178913738s" begin="-0.03993610223642173s" repeatCount="indefinite"></animate>
  </rect>
</g><g transform="rotate(315 50 50)">
  <rect x="41" y="29.5" rx="5.4" ry="0.5" width="18" height="1" fill="#fcf5f7">
    <animate attributeName="opacity" values="1;0" keyTimes="0;1" dur="0.3194888178913738s" begin="-0.031948881789137386s" repeatCount="indefinite"></animate>
  </rect>
</g><g transform="rotate(324 50 50)">
  <rect x="41" y="29.5" rx="5.4" ry="0.5" width="18" height="1" fill="#fcf5f7">
    <animate attributeName="opacity" values="1;0" keyTimes="0;1" dur="0.3194888178913738s" begin="-0.023961661341853038s" repeatCount="indefinite"></animate>
  </rect>
</g><g transform="rotate(333 50 50)">
  <rect x="41" y="29.5" rx="5.4" ry="0.5" width="18" height="1" fill="#fcf5f7">
    <animate attributeName="opacity" values="1;0" keyTimes="0;1" dur="0.3194888178913738s" begin="-0.015974440894568693s" repeatCount="indefinite"></animate>
  </rect>
</g><g transform="rotate(342 50 50)">
  <rect x="41" y="29.5" rx="5.4" ry="0.5" width="18" height="1" fill="#fcf5f7">
    <animate attributeName="opacity" values="1;0" keyTimes="0;1" dur="0.3194888178913738s" begin="-0.007987220447284346s" repeatCount="indefinite"></animate>
  </rect>
</g><g transform="rotate(351 50 50)">
  <rect x="41" y="29.5" rx="5.4" ry="0.5" width="18" height="1" fill="#fcf5f7">
    <animate attributeName="opacity" values="1;0" keyTimes="0;1" dur="0.3194888178913738s" begin="0s" repeatCount="indefinite"></animate>
  </rect>
</g>
<!-- [ldio] generated by https://loading.io/ --></svg>